{
  "accessors": [
    {
      "bufferView": 0,
      "byteOffset": 0,
      "count": 36,
      "componentType": 5126,
      "type": "VEC3",
      "min": [
        -0.5,
        -0.5,
        -0.5
      ],
      "max": [
        0.5,
        0.5,
        0.5
      ]
    },
    {
      "bufferView": 0,
      "byteOffset": 12,
      "count": 36,
      "componentType": 5126,
      "type": "VEC3"
    },
    {
      "bufferView": 0,
      "byteOffset": 24,
      "count": 36,
      "componentType": 5126,
      "type": "VEC2"
    }
  ],
  "asset": {
    "version": "2.0"
  },
  "buffers": [
    {
      "byteLength": 1152,
      "uri": "cube.bin"
    }
  ],
  "bufferViews": [
    {
      "buffer": 0,
      "byteLength": 1152,
      "byteStride": 32,
      "target": 34962
    }
  ],
  "meshes": [
    {
      "name": "cube_mesh",
      "primitives": [
        {
          "attributes": {
            "POSITION": 0,
            "COLOR_0": 1,
            "TEXCOORD_0": 2
          }
        }
      ]
    }
  ],
  "nodes": [
    {
      "mesh": 0
    }
  ],
  "scenes": [
    {
      "nodes": [
        0
      ]
    }
  ]
}